<?xml version="1.0" encoding="utf-8"?>
<!-- Generator: Adobe Illustrator 22.0.1, SVG Export Plug-In . SVG Version: 6.00 Build 0)  -->
<svg version="1.1" id="wordpress" xmlns="http://www.w3.org/2000/svg" xmlns:xlink="http://www.w3.org/1999/xlink" x="0px" y="0px"
	 viewBox="0 0 24 24" style="enable-background:new 0 0 24 24;" xml:space="preserve">
<style type="text/css">
	.st0{fill:#FFFFFF;}
</style>
<path class="st0" d="M3.7,12c0,3.2,1.8,6.1,4.7,7.5l-4-10.9C3.9,9.7,3.7,10.8,3.7,12z M12.1,12.7L9.6,20c1.7,0.5,3.5,0.4,5.1-0.1
	c0,0,0-0.1-0.1-0.1L12.1,12.7z M17.6,11.6c0-0.8-0.2-1.6-0.7-2.3c-0.4-0.6-0.7-1.2-0.8-2c0-0.8,0.6-1.5,1.4-1.5c0,0,0.1,0,0.1,0
	C14.2,2.7,9,3,5.9,6.4C5.6,6.7,5.3,7.1,5,7.4c0.2,0,0.4,0,0.5,0c0.9,0,2.2-0.1,2.2-0.1c0.2,0,0.4,0.1,0.4,0.3C8.2,7.8,8,8,7.8,8
	c0,0-0.5,0.1-1,0.1l3,9l1.8-5.5l-1.3-3.6C10,8.1,9.6,8,9.6,8C9.4,8,9.3,7.8,9.3,7.6c0-0.2,0.2-0.3,0.4-0.3c0,0,1.4,0.1,2.2,0.1
	c0.9,0,2.2-0.1,2.2-0.1c0.2,0,0.4,0.1,0.4,0.3c0,0.2-0.1,0.3-0.3,0.4c0,0-0.5,0.1-1,0.1l3,9l0.9-2.7C17.4,13.4,17.6,12.5,17.6,11.6z
	 M19.4,8.9c0,1-0.2,2-0.6,3l-2.5,7.4c3.9-2.3,5.3-7.2,3.1-11.2C19.4,8.3,19.4,8.6,19.4,8.9z M12,2C6.5,2,2,6.5,2,12s4.5,10,10,10
	s10-4.5,10-10S17.5,2,12,2z M15.7,20.7c-2.9,1.2-6.3,0.9-8.9-0.9c-1.5-1-2.7-2.5-3.4-4.1c-1.2-2.9-0.9-6.3,0.9-8.9
	c1-1.5,2.5-2.7,4.1-3.4c2.9-1.2,6.3-0.9,8.9,0.9c1.5,1,2.7,2.5,3.4,4.1c1.2,2.9,0.9,6.3-0.9,8.9C18.8,18.8,17.3,20,15.7,20.7z"/>
</svg>
