<svg xmlns="http://www.w3.org/2000/svg" width="93.947" height="104" id="google-analytics"><path fill="#f9ab00" d="M93.947 90.985a12.925 12.925 0 0 1-12.857 12.993 12.362 12.362 0 0 1-1.591-.09 13.255 13.255 0 0 1-11.312-13.434V13.523A13.26 13.26 0 0 1 79.52.089a12.909 12.909 0 0 1 14.426 12.9Z" data-name="Path 172"></path><path fill="#e37400" d="M12.882 78.236A12.882 12.882 0 1 1 0 91.118a12.882 12.882 0 0 1 12.882-12.882Zm33.893-39.044a13.256 13.256 0 0 0-12.527 13.545v34.6c0 9.391 4.133 15.09 10.187 16.3a12.9 12.9 0 0 0 15.209-10.084 12.61 12.61 0 0 0 .257-2.6v-38.81A12.925 12.925 0 0 0 47 39.192h-.225Z" data-name="Path 173"></path></svg>