<?xml version="1.0" encoding="utf-8"?>
<!-- Generator: Adobe Illustrator 22.0.1, SVG Export Plug-In . SVG Version: 6.00 Build 0)  -->
<svg version="1.1" xmlns="http://www.w3.org/2000/svg" xmlns:xlink="http://www.w3.org/1999/xlink" x="0px" y="0px"
	 viewBox="0 0 127.9 127.9" style="enable-background:new 0 0 127.9 127.9;" xml:space="preserve">
<style type="text/css">
	.st0{fill:#FFFFFF;}
</style>
<g id="express">
</g>
<g id="express_copy">
	<path class="st0" d="M40.5,77.7V50.6H42v4.3c0.2-0.2,0.3-0.4,0.5-0.6c1.2-2.5,3.8-4.2,6.6-4.1c3.3-0.1,6.1,1.1,7.7,4.1
		c2.1,3.8,2.2,8.3,0.3,12.1c-1.5,3.3-5.2,5-9.1,4.4c-2.5-0.2-4.7-1.7-5.9-3.9v10.8H40.5z M42,60.2c0.1,1.3,0.2,2.3,0.3,3.2
		c0.6,3.6,2.7,5.8,6.1,6.2c3.3,0.5,6.4-1.3,7.6-4.4c1.3-3.1,1.2-6.6-0.3-9.7c-1.2-2.8-4.1-4.4-7.1-3.9c-2.8,0.2-5.2,2.2-5.9,4.9
		C42.4,57.6,42.1,58.9,42,60.2z M88.4,63.9c-0.5,3.9-3.8,6.9-7.7,7c-6.2,0.3-9.1-3.8-9.5-8.5c-0.3-2.6,0.1-5.2,1.2-7.5
		c1.6-3.3,5.1-5.2,8.7-4.7c3.4,0.3,6.3,2.7,7.1,6.1c0.3,1.5,0.5,3,0.7,4.5H72.7c-0.3,4.3,2,7.7,5.3,8.6c4.1,1,7.5-0.8,8.8-4.6
		C87,63.7,87.5,63.6,88.4,63.9z M72.7,59.4h14.5c-0.1-4.6-2.9-7.9-6.8-7.9C76,51.4,72.8,54.6,72.7,59.4z M91.4,64h1.4
		c0.1,2.1,1.4,4,3.3,4.9c2.4,1.1,5.2,1,7.6-0.2c1.3-0.6,2.1-1.9,2-3.3c0.1-1.4-0.8-2.6-2.1-3.1c-1.6-0.6-3.2-0.9-4.8-1.4
		c-1.7-0.5-3.3-1.1-4.8-1.8c-2.6-1.3-2.7-6.1,0.2-7.7c3-1.7,6.7-1.8,9.8-0.2c1.9,1,2.9,3.1,2.6,5.2h-1.2c0-0.1-0.1-0.1-0.1-0.2
		c-0.2-3.9-3.4-5.1-6.9-4.8c-1,0.1-2.1,0.4-3,0.9c-1.2,0.5-1.9,1.7-1.7,3c0,1.3,0.8,2.4,2,2.8c1.5,0.6,3.2,0.9,4.7,1.4
		c1.3,0.3,2.6,0.6,3.8,1c1.8,0.6,3,2.2,3.1,4.1c0.3,2.1-0.7,4.1-2.6,5c-3.3,1.9-8.8,1.4-11.3-1C92.1,67.4,91.4,65.7,91.4,64z
		 M125.2,56.5h-1.3c0-0.2-0.1-0.3-0.1-0.5c0-2.1-1.5-3.8-3.5-4.2c-1.8-0.5-3.8-0.4-5.6,0.3c-1.5,0.4-2.5,1.7-2.5,3.3
		c-0.1,1.5,1,2.8,2.4,3.2c2,0.6,4.1,1,6.1,1.6c0.7,0.2,1.3,0.4,1.9,0.6c2.6,0.9,4,3.8,3,6.4c-0.5,1.3-1.5,2.4-2.8,2.9
		c-2.9,1.3-6.1,1.3-9,0.1c-2.4-1-3.9-3.5-3.8-6.1h0.6h0.7c0.8,3.9,4.7,6.5,8.6,5.7c0.9-0.2,1.7-0.5,2.5-1c1.2-0.6,2-1.9,1.9-3.3
		c0.1-1.4-0.8-2.6-2.1-3.1c-1.6-0.6-3.2-0.9-4.8-1.4c-1.7-0.5-3.3-1-4.9-1.8c-2.5-1.2-2.7-6.1,0.2-7.6c3.1-1.8,6.8-1.8,9.9-0.1
		C124.5,52.4,125.4,54.4,125.2,56.5z M38.1,70.4c-1.1,0.4-2.3-0.1-2.8-1.1c-1.6-2.4-3.4-4.8-5.2-7.2l-0.8-1c-2.1,2.8-4.1,5.4-6,8.2
		c-0.5,1-1.7,1.4-2.7,1.1L28.4,60l-7.2-9.4c1.1-0.4,2.3,0,2.9,1c1.7,2.4,3.5,4.8,5.4,7.2c1.9-2.5,3.7-4.8,5.4-7.2
		c0.5-1,1.7-1.4,2.7-1l-2.8,3.7c-1.3,1.7-2.5,3.3-3.8,4.9c-0.4,0.4-0.4,1-0.1,1.4c0,0,0.1,0.1,0.1,0.1
		C33.3,63.9,35.6,67.1,38.1,70.4z M70.9,50.5v1.4c-4-0.3-7.4,2.8-7.7,6.8c0,0.2,0,0.5,0,0.7c0,3.3,0,6.6,0,9.9c0,0.3,0,0.7,0,1.1
		h-1.4V50.6h1.4v4.1C64.9,51.7,67.6,50.6,70.9,50.5z M2.1,59.9c0.2-1,0.3-2.1,0.6-3.1c1.7-6.2,8.8-8.7,13.6-4.9
		c2.8,2.2,3.5,5.4,3.4,9h-16C3.5,67.2,8.1,71,14,69c1.9-0.7,3.4-2.3,3.9-4.3c0.3-1,0.8-1.2,1.8-0.9c-0.3,2.5-1.7,4.7-3.9,5.9
		c-3.6,2-8,1.4-11-1.4c-1.4-1.6-2.3-3.6-2.5-5.8c0-0.3-0.1-0.7-0.2-1C2.1,61,2.1,60.4,2.1,59.9z M3.8,59.4h14.5
		c-0.1-4.6-3-7.9-6.9-7.9C7.1,51.5,4,54.7,3.8,59.4L3.8,59.4z"/>
</g>
</svg>
