<svg xmlns="http://www.w3.org/2000/svg" width="10" height="10" viewBox="0 0 100 100" id="crunchyroll"><g><path fill="#f60" d="M95.861,43.517c-7.059-44.746-67.18-53.838-87.55-13.491c-14.094,28.783,5.422,62.6,37.287,65.569
				c-0.246,0.138,11.835,0.216,5.657-0.32c-2.384-0.191-5.999-0.995-8.814-1.959C6.051,80.491,6.181,30.216,42.617,17.612
				c23.974-8.48,50.92,8.586,53.287,33.766c0.096,1.138,0.173,1.413,0.319,1.15C96.493,52.047,96.261,46.285,95.861,43.517z"></path><path fill="#f60" d="M88.716,53.078c-8.249,8.928-23.788,3.74-25.163-8.21c-0.951-6.583,3.482-13.149,9.804-15.499
				C26.439,7.838,3.291,82.524,55.402,89.897C76.571,91.661,93.966,72.754,90.013,52C89.961,51.915,89.377,52.4,88.716,53.078z"></path></g></svg>