<?xml version="1.0" encoding="utf-8"?>
<!-- Generator: Adobe Illustrator 22.0.1, SVG Export Plug-In . SVG Version: 6.00 Build 0)  -->
<svg version="1.1" xmlns="http://www.w3.org/2000/svg" xmlns:xlink="http://www.w3.org/1999/xlink" x="0px" y="0px"
	 viewBox="0 0 1350.8 500" style="enable-background:new 0 0 1350.8 500;" xml:space="preserve">
<style type="text/css">
	.st0{display:none;}
	.st1{display:inline;fill:#FFFFFF;}
	.st2{fill:#FFFFFF;}
</style>
<g id="Layer_2" class="st0">
	<path class="st1" d="M0,336.6c0,0,15.3-13.4,36.8,3.6s62.7,78.8,99.3,94.9c36.7,16.1,67.1,10.3,70.7,9.8s65.3-17.5,126-8.3
		c56.7,8.6,121.4,58.8,172.9,59.7c56.9,1,158-14.2,243.9-98c72-70.3,75.6-130.1,140.1-143.2c61.8-12.5,170.7,35.8,221.1,52.4
		c55.5,18.2,101.5,15,124.9,4.9c50.6-21.9,106.1-90.4,115.1-126.4l-0.4,314H0.4L0,336.6z"/>
</g>
<g id="Layer_3">
	<polygon class="st2" points="0.3,461 1350.8,343 1350.4,500 0.4,500 	"/>
</g>
</svg>
